<svg xmlns="http://www.w3.org/2000/svg" width="1180" height="728" viewBox="0 0 1180 728" role="img" aria-label="PROJECTS.LIST">
<defs><linearGradient id="hd" x1="0" y1="0" x2="1" y2="0"><stop offset="0" stop-color="#7C3AED"/><stop offset="1" stop-color="#22D3EE"/></linearGradient></defs>
<rect x="0" y="0" width="1180" height="728" fill="#0B0F1A"/>
<rect x="0" y="0" width="1180" height="38" fill="#111827"/>
<line x1="0" y1="38" x2="1180" y2="38" stroke="#1E293B" stroke-width="1"/>
<circle cx="22" cy="19.0" r="6" fill="#F87171"/>
<circle cx="42" cy="19.0" r="6" fill="#FBBF24"/>
<circle cx="62" cy="19.0" r="6" fill="#34D399"/>
<text x="92" y="24.0" font-size="13" font-family="ui-monospace,SFMono-Regular,Menlo,Consolas,monospace" fill="#64748B">rio@github.dev  -  <tspan fill="#22D3EE">%</tspan>  ./projects.sh --all</text>
<text x="26" y="64" font-size="11" font-family="ui-monospace,SFMono-Regular,Menlo,Consolas,monospace" fill="#A78BFA" letter-spacing="2">PROJECTS.LIST</text>
<rect x="26.0" y="82" width="557.0" height="168" rx="10" fill="#0F172A" stroke="#1E293B" stroke-width="1"/>
<text x="40.0" y="94" font-size="10.5" font-family="ui-monospace,SFMono-Regular,Menlo,Consolas,monospace" fill="#64748B">riorizqi-dev/kantinku</text>
<rect x="40.0" y="106" width="30" height="30" rx="8" fill="#3178C6"/>
<text x="55.0" y="127" text-anchor="middle" font-size="14" font-weight="700" font-family="ui-monospace,SFMono-Regular,Menlo,Consolas,monospace" fill="#0B0F1A">K</text>
<text x="80.0" y="122" font-size="13.5" font-weight="700" font-family="ui-monospace,SFMono-Regular,Menlo,Consolas,monospace" fill="#E2E8F0">KANTINKU</text>
<text x="80.0" y="137" font-size="11.5" font-family="ui-monospace,SFMono-Regular,Menlo,Consolas,monospace" fill="#94A3B8">Digital canteen ordering system</text>
<rect x="40.0" y="148" width="67.80000000000001" height="20" rx="10" fill="#7C3AED" opacity="0.85"/><text x="73.9" y="162" text-anchor="middle" font-size="10.5" font-family="ui-monospace,SFMono-Regular,Menlo,Consolas,monospace" fill="#FFFFFF">Next.js</text>
<rect x="113.6" y="148" width="75.2" height="20" rx="10" fill="#7C3AED" opacity="0.85"/><text x="151.2" y="162" text-anchor="middle" font-size="10.5" font-family="ui-monospace,SFMono-Regular,Menlo,Consolas,monospace" fill="#FFFFFF">Supabase</text>
<rect x="187.2" y="148" width="75.2" height="20" rx="10" fill="#7C3AED" opacity="0.85"/><text x="224.79999999999998" y="162" text-anchor="middle" font-size="10.5" font-family="ui-monospace,SFMono-Regular,Menlo,Consolas,monospace" fill="#FFFFFF">Tailwind</text>
<circle cx="45.0" cy="174" r="3.5" fill="#3178C6"/><text x="54.0" y="178" font-size="11" font-family="ui-monospace,SFMono-Regular,Menlo,Consolas,monospace" fill="#94A3B8">TypeScript</text><text x="569.0" y="178" font-size="11" font-family="ui-monospace,SFMono-Regular,Menlo,Consolas,monospace" fill="#94A3B8" text-anchor="end">84.7%</text><rect x="40.0" y="184" width="433.0" height="5" rx="2.5" fill="#1E293B"/><rect x="40.0" y="184" width="366.9" height="5" rx="2.5" fill="url(#hd)"/>
<circle cx="45.0" cy="202" r="3.5" fill="#F1E05A"/><text x="54.0" y="206" font-size="11" font-family="ui-monospace,SFMono-Regular,Menlo,Consolas,monospace" fill="#94A3B8">JavaScript</text><text x="569.0" y="206" font-size="11" font-family="ui-monospace,SFMono-Regular,Menlo,Consolas,monospace" fill="#94A3B8" text-anchor="end">12.8%</text><rect x="40.0" y="212" width="433.0" height="5" rx="2.5" fill="#1E293B"/><rect x="40.0" y="212" width="55.6" height="5" rx="2.5" fill="url(#hd)"/>
<circle cx="45.0" cy="230" r="3.5" fill="#E34C26"/><text x="54.0" y="234" font-size="11" font-family="ui-monospace,SFMono-Regular,Menlo,Consolas,monospace" fill="#94A3B8">HTML</text><text x="569.0" y="234" font-size="11" font-family="ui-monospace,SFMono-Regular,Menlo,Consolas,monospace" fill="#94A3B8" text-anchor="end">1.7%</text><rect x="40.0" y="240" width="433.0" height="5" rx="2.5" fill="#1E293B"/><rect x="40.0" y="240" width="7.2" height="5" rx="2.5" fill="url(#hd)"/>
<circle cx="537.0" cy="126" r="15" fill="none" stroke="#1E293B" stroke-width="5"/><circle cx="537.0" cy="126" r="15" fill="none" stroke="url(#hd)" stroke-width="5" stroke-linecap="round" stroke-dasharray="79.86 94.25" transform="rotate(-90 537.0 126)"/><text x="537.0" y="130" text-anchor="middle" font-size="11" font-family="ui-monospace,SFMono-Regular,Menlo,Consolas,monospace" fill="#E2E8F0">85%</text>
<text x="40.0" y="238" font-size="11" font-family="ui-monospace,SFMono-Regular,Menlo,Consolas,monospace" fill="#64748B">&#9733; 0 &#183; updated today</text>
<rect x="597.0" y="82" width="557.0" height="168" rx="10" fill="#0F172A" stroke="#1E293B" stroke-width="1"/>
<text x="611.0" y="94" font-size="10.5" font-family="ui-monospace,SFMono-Regular,Menlo,Consolas,monospace" fill="#64748B">riorizqi-dev/vantor</text>
<rect x="611.0" y="106" width="30" height="30" rx="8" fill="#3178C6"/>
<text x="626.0" y="127" text-anchor="middle" font-size="14" font-weight="700" font-family="ui-monospace,SFMono-Regular,Menlo,Consolas,monospace" fill="#0B0F1A">V</text>
<text x="651.0" y="122" font-size="13.5" font-weight="700" font-family="ui-monospace,SFMono-Regular,Menlo,Consolas,monospace" fill="#E2E8F0">VANTOR</text>
<text x="651.0" y="137" font-size="11.5" font-family="ui-monospace,SFMono-Regular,Menlo,Consolas,monospace" fill="#94A3B8">Luxury watch brand landing page</text>
<rect x="611.0" y="148" width="90.0" height="20" rx="10" fill="#7C3AED" opacity="0.85"/><text x="656.0" y="162" text-anchor="middle" font-size="10.5" font-family="ui-monospace,SFMono-Regular,Menlo,Consolas,monospace" fill="#FFFFFF">Next.js 15</text>
<rect x="655.8" y="148" width="45.6" height="20" rx="10" fill="#7C3AED" opacity="0.85"/><text x="678.5999999999999" y="162" text-anchor="middle" font-size="10.5" font-family="ui-monospace,SFMono-Regular,Menlo,Consolas,monospace" fill="#FFFFFF">GSAP</text>
<rect x="830.2" y="148" width="112.2" height="20" rx="10" fill="#7C3AED" opacity="0.85"/><text x="886.3000000000001" y="162" text-anchor="middle" font-size="10.5" font-family="ui-monospace,SFMono-Regular,Menlo,Consolas,monospace" fill="#FFFFFF">Framer Motion</text>
<circle cx="616.0" cy="174" r="3.5" fill="#3178C6"/><text x="625.0" y="178" font-size="11" font-family="ui-monospace,SFMono-Regular,Menlo,Consolas,monospace" fill="#94A3B8">TypeScript</text><text x="1140.0" y="178" font-size="11" font-family="ui-monospace,SFMono-Regular,Menlo,Consolas,monospace" fill="#94A3B8" text-anchor="end">92.7%</text><rect x="611.0" y="184" width="433.0" height="5" rx="2.5" fill="#1E293B"/><rect x="611.0" y="184" width="401.4" height="5" rx="2.5" fill="url(#hd)"/>
<circle cx="616.0" cy="202" r="3.5" fill="#663399"/><text x="625.0" y="206" font-size="11" font-family="ui-monospace,SFMono-Regular,Menlo,Consolas,monospace" fill="#94A3B8">CSS</text><text x="1140.0" y="206" font-size="11" font-family="ui-monospace,SFMono-Regular,Menlo,Consolas,monospace" fill="#94A3B8" text-anchor="end">6.5%</text><rect x="611.0" y="212" width="433.0" height="5" rx="2.5" fill="#1E293B"/><rect x="611.0" y="212" width="28.1" height="5" rx="2.5" fill="url(#hd)"/>
<circle cx="616.0" cy="230" r="3.5" fill="#F1E05A"/><text x="625.0" y="234" font-size="11" font-family="ui-monospace,SFMono-Regular,Menlo,Consolas,monospace" fill="#94A3B8">JavaScript</text><text x="1140.0" y="234" font-size="11" font-family="ui-monospace,SFMono-Regular,Menlo,Consolas,monospace" fill="#94A3B8" text-anchor="end">0.8%</text><rect x="611.0" y="240" width="433.0" height="5" rx="2.5" fill="#1E293B"/><rect x="611.0" y="240" width="3.5" height="5" rx="2.5" fill="url(#hd)"/>
<circle cx="1108.0" cy="126" r="15" fill="none" stroke="#1E293B" stroke-width="5"/><circle cx="1108.0" cy="126" r="15" fill="none" stroke="url(#hd)" stroke-width="5" stroke-linecap="round" stroke-dasharray="87.37 94.25" transform="rotate(-90 1108.0 126)"/><text x="1108.0" y="130" text-anchor="middle" font-size="11" font-family="ui-monospace,SFMono-Regular,Menlo,Consolas,monospace" fill="#E2E8F0">93%</text>
<text x="611.0" y="238" font-size="11" font-family="ui-monospace,SFMono-Regular,Menlo,Consolas,monospace" fill="#64748B">&#9733; 0 &#183; updated today</text>
<rect x="26.0" y="264" width="557.0" height="168" rx="10" fill="#0F172A" stroke="#1E293B" stroke-width="1"/>
<text x="40.0" y="276" font-size="10.5" font-family="ui-monospace,SFMono-Regular,Menlo,Consolas,monospace" fill="#64748B">riorizqi-dev/cafe-yo</text>
<rect x="40.0" y="288" width="30" height="30" rx="8" fill="#178600"/>
<text x="55.0" y="309" text-anchor="middle" font-size="14" font-weight="700" font-family="ui-monospace,SFMono-Regular,Menlo,Consolas,monospace" fill="#0B0F1A">C</text>
<text x="80.0" y="304" font-size="13.5" font-weight="700" font-family="ui-monospace,SFMono-Regular,Menlo,Consolas,monospace" fill="#E2E8F0">CAFE-YO</text>
<text x="80.0" y="319" font-size="11.5" font-family="ui-monospace,SFMono-Regular,Menlo,Consolas,monospace" fill="#94A3B8">Cafe management system</text>
<rect x="40.0" y="330" width="104.80000000000001" height="20" rx="10" fill="#7C3AED" opacity="0.85"/><text x="92.4" y="344" text-anchor="middle" font-size="10.5" font-family="ui-monospace,SFMono-Regular,Menlo,Consolas,monospace" fill="#FFFFFF">ASP.NET Core</text>
<rect x="77.6" y="330" width="38.2" height="20" rx="10" fill="#7C3AED" opacity="0.85"/><text x="96.69999999999999" y="344" text-anchor="middle" font-size="10.5" font-family="ui-monospace,SFMono-Regular,Menlo,Consolas,monospace" fill="#FFFFFF">MVC</text>
<rect x="144.0" y="330" width="53.0" height="20" rx="10" fill="#7C3AED" opacity="0.85"/><text x="170.5" y="344" text-anchor="middle" font-size="10.5" font-family="ui-monospace,SFMono-Regular,Menlo,Consolas,monospace" fill="#FFFFFF">MySQL</text>
<circle cx="45.0" cy="356" r="3.5" fill="#178600"/><text x="54.0" y="360" font-size="11" font-family="ui-monospace,SFMono-Regular,Menlo,Consolas,monospace" fill="#94A3B8">C#</text><text x="569.0" y="360" font-size="11" font-family="ui-monospace,SFMono-Regular,Menlo,Consolas,monospace" fill="#94A3B8" text-anchor="end">37.4%</text><rect x="40.0" y="366" width="433.0" height="5" rx="2.5" fill="#1E293B"/><rect x="40.0" y="366" width="161.9" height="5" rx="2.5" fill="url(#hd)"/>
<circle cx="45.0" cy="384" r="3.5" fill="#663399"/><text x="54.0" y="388" font-size="11" font-family="ui-monospace,SFMono-Regular,Menlo,Consolas,monospace" fill="#94A3B8">CSS</text><text x="569.0" y="388" font-size="11" font-family="ui-monospace,SFMono-Regular,Menlo,Consolas,monospace" fill="#94A3B8" text-anchor="end">27.3%</text><rect x="40.0" y="394" width="433.0" height="5" rx="2.5" fill="#1E293B"/><rect x="40.0" y="394" width="118.1" height="5" rx="2.5" fill="url(#hd)"/>
<circle cx="45.0" cy="412" r="3.5" fill="#E34C26"/><text x="54.0" y="416" font-size="11" font-family="ui-monospace,SFMono-Regular,Menlo,Consolas,monospace" fill="#94A3B8">HTML</text><text x="569.0" y="416" font-size="11" font-family="ui-monospace,SFMono-Regular,Menlo,Consolas,monospace" fill="#94A3B8" text-anchor="end">25.7%</text><rect x="40.0" y="422" width="433.0" height="5" rx="2.5" fill="#1E293B"/><rect x="40.0" y="422" width="111.4" height="5" rx="2.5" fill="url(#hd)"/>
<circle cx="537.0" cy="308" r="15" fill="none" stroke="#1E293B" stroke-width="5"/><circle cx="537.0" cy="308" r="15" fill="none" stroke="url(#hd)" stroke-width="5" stroke-linecap="round" stroke-dasharray="35.23 94.25" transform="rotate(-90 537.0 308)"/><text x="537.0" y="312" text-anchor="middle" font-size="11" font-family="ui-monospace,SFMono-Regular,Menlo,Consolas,monospace" fill="#E2E8F0">37%</text>
<text x="40.0" y="420" font-size="11" font-family="ui-monospace,SFMono-Regular,Menlo,Consolas,monospace" fill="#64748B">&#9733; 0 &#183; updated 1mo ago</text>
<rect x="597.0" y="264" width="557.0" height="168" rx="10" fill="#0F172A" stroke="#1E293B" stroke-width="1"/>
<text x="611.0" y="276" font-size="10.5" font-family="ui-monospace,SFMono-Regular,Menlo,Consolas,monospace" fill="#64748B">riorizqi-dev/rfm-market</text>
<rect x="611.0" y="288" width="30" height="30" rx="8" fill="#E34C26"/>
<text x="626.0" y="309" text-anchor="middle" font-size="14" font-weight="700" font-family="ui-monospace,SFMono-Regular,Menlo,Consolas,monospace" fill="#0B0F1A">R</text>
<text x="651.0" y="304" font-size="13.5" font-weight="700" font-family="ui-monospace,SFMono-Regular,Menlo,Consolas,monospace" fill="#E2E8F0">RFM-MARKET</text>
<text x="651.0" y="319" font-size="11.5" font-family="ui-monospace,SFMono-Regular,Menlo,Consolas,monospace" fill="#94A3B8">Stocks &amp; crypto dashboard UI</text>
<rect x="611.0" y="330" width="45.6" height="20" rx="10" fill="#7C3AED" opacity="0.85"/><text x="633.8" y="344" text-anchor="middle" font-size="10.5" font-family="ui-monospace,SFMono-Regular,Menlo,Consolas,monospace" fill="#FFFFFF">HTML</text>
<rect x="684.6" y="330" width="75.2" height="20" rx="10" fill="#7C3AED" opacity="0.85"/><text x="722.2" y="344" text-anchor="middle" font-size="10.5" font-family="ui-monospace,SFMono-Regular,Menlo,Consolas,monospace" fill="#FFFFFF">Tailwind</text>
<circle cx="616.0" cy="356" r="3.5" fill="#E34C26"/><text x="625.0" y="360" font-size="11" font-family="ui-monospace,SFMono-Regular,Menlo,Consolas,monospace" fill="#94A3B8">HTML</text><text x="1140.0" y="360" font-size="11" font-family="ui-monospace,SFMono-Regular,Menlo,Consolas,monospace" fill="#94A3B8" text-anchor="end">100.0%</text><rect x="611.0" y="366" width="433.0" height="5" rx="2.5" fill="#1E293B"/><rect x="611.0" y="366" width="433.0" height="5" rx="2.5" fill="url(#hd)"/>
<circle cx="1108.0" cy="308" r="15" fill="none" stroke="#1E293B" stroke-width="5"/><circle cx="1108.0" cy="308" r="15" fill="none" stroke="url(#hd)" stroke-width="5" stroke-linecap="round" stroke-dasharray="94.25 94.25" transform="rotate(-90 1108.0 308)"/><text x="1108.0" y="312" text-anchor="middle" font-size="11" font-family="ui-monospace,SFMono-Regular,Menlo,Consolas,monospace" fill="#E2E8F0">100%</text>
<text x="611.0" y="420" font-size="11" font-family="ui-monospace,SFMono-Regular,Menlo,Consolas,monospace" fill="#64748B">&#9733; 0 &#183; updated today</text>
<rect x="26.0" y="446" width="557.0" height="168" rx="10" fill="#0F172A" stroke="#1E293B" stroke-width="1"/>
<text x="40.0" y="458" font-size="10.5" font-family="ui-monospace,SFMono-Regular,Menlo,Consolas,monospace" fill="#64748B">riorizqi-dev/the-killer</text>
<rect x="40.0" y="470" width="30" height="30" rx="8" fill="#E34C26"/>
<text x="55.0" y="491" text-anchor="middle" font-size="14" font-weight="700" font-family="ui-monospace,SFMono-Regular,Menlo,Consolas,monospace" fill="#0B0F1A">T</text>
<text x="80.0" y="486" font-size="13.5" font-weight="700" font-family="ui-monospace,SFMono-Regular,Menlo,Consolas,monospace" fill="#E2E8F0">THE-KILLER</text>
<text x="80.0" y="501" font-size="11.5" font-family="ui-monospace,SFMono-Regular,Menlo,Consolas,monospace" fill="#94A3B8">Noir contract specialists page</text>
<rect x="40.0" y="512" width="45.6" height="20" rx="10" fill="#7C3AED" opacity="0.85"/><text x="62.8" y="526" text-anchor="middle" font-size="10.5" font-family="ui-monospace,SFMono-Regular,Menlo,Consolas,monospace" fill="#FFFFFF">HTML</text>
<rect x="77.6" y="512" width="38.2" height="20" rx="10" fill="#7C3AED" opacity="0.85"/><text x="96.69999999999999" y="526" text-anchor="middle" font-size="10.5" font-family="ui-monospace,SFMono-Regular,Menlo,Consolas,monospace" fill="#FFFFFF">CSS</text>
<rect x="100.8" y="512" width="30.8" height="20" rx="10" fill="#7C3AED" opacity="0.85"/><text x="116.2" y="526" text-anchor="middle" font-size="10.5" font-family="ui-monospace,SFMono-Regular,Menlo,Consolas,monospace" fill="#FFFFFF">JS</text>
<circle cx="45.0" cy="538" r="3.5" fill="#E34C26"/><text x="54.0" y="542" font-size="11" font-family="ui-monospace,SFMono-Regular,Menlo,Consolas,monospace" fill="#94A3B8">HTML</text><text x="569.0" y="542" font-size="11" font-family="ui-monospace,SFMono-Regular,Menlo,Consolas,monospace" fill="#94A3B8" text-anchor="end">97.9%</text><rect x="40.0" y="548" width="433.0" height="5" rx="2.5" fill="#1E293B"/><rect x="40.0" y="548" width="423.7" height="5" rx="2.5" fill="url(#hd)"/>
<circle cx="45.0" cy="566" r="3.5" fill="#3572A5"/><text x="54.0" y="570" font-size="11" font-family="ui-monospace,SFMono-Regular,Menlo,Consolas,monospace" fill="#94A3B8">Python</text><text x="569.0" y="570" font-size="11" font-family="ui-monospace,SFMono-Regular,Menlo,Consolas,monospace" fill="#94A3B8" text-anchor="end">2.1%</text><rect x="40.0" y="576" width="433.0" height="5" rx="2.5" fill="#1E293B"/><rect x="40.0" y="576" width="9.3" height="5" rx="2.5" fill="url(#hd)"/>
<circle cx="537.0" cy="490" r="15" fill="none" stroke="#1E293B" stroke-width="5"/><circle cx="537.0" cy="490" r="15" fill="none" stroke="url(#hd)" stroke-width="5" stroke-linecap="round" stroke-dasharray="92.23 94.25" transform="rotate(-90 537.0 490)"/><text x="537.0" y="494" text-anchor="middle" font-size="11" font-family="ui-monospace,SFMono-Regular,Menlo,Consolas,monospace" fill="#E2E8F0">98%</text>
<text x="40.0" y="602" font-size="11" font-family="ui-monospace,SFMono-Regular,Menlo,Consolas,monospace" fill="#64748B">&#9733; 0 &#183; updated today</text>
<rect x="597.0" y="446" width="557.0" height="168" rx="10" fill="#0F172A" stroke="#1E293B" stroke-width="1"/>
<text x="611.0" y="458" font-size="10.5" font-family="ui-monospace,SFMono-Regular,Menlo,Consolas,monospace" fill="#64748B">riorizqi-dev/portfolio-rio</text>
<rect x="611.0" y="470" width="30" height="30" rx="8" fill="#3178C6"/>
<text x="626.0" y="491" text-anchor="middle" font-size="14" font-weight="700" font-family="ui-monospace,SFMono-Regular,Menlo,Consolas,monospace" fill="#0B0F1A">P</text>
<text x="651.0" y="486" font-size="13.5" font-weight="700" font-family="ui-monospace,SFMono-Regular,Menlo,Consolas,monospace" fill="#E2E8F0">PORTFOLIO-RIO</text>
<text x="651.0" y="501" font-size="11.5" font-family="ui-monospace,SFMono-Regular,Menlo,Consolas,monospace" fill="#94A3B8">Personal portfolio site</text>
<rect x="611.0" y="512" width="75.2" height="20" rx="10" fill="#7C3AED" opacity="0.85"/><text x="648.6" y="526" text-anchor="middle" font-size="10.5" font-family="ui-monospace,SFMono-Regular,Menlo,Consolas,monospace" fill="#FFFFFF">React 19</text>
<rect x="699.0" y="512" width="90.0" height="20" rx="10" fill="#7C3AED" opacity="0.85"/><text x="744.0" y="526" text-anchor="middle" font-size="10.5" font-family="ui-monospace,SFMono-Regular,Menlo,Consolas,monospace" fill="#FFFFFF">TypeScript</text>
<rect x="700.6" y="512" width="45.6" height="20" rx="10" fill="#7C3AED" opacity="0.85"/><text x="723.4" y="526" text-anchor="middle" font-size="10.5" font-family="ui-monospace,SFMono-Regular,Menlo,Consolas,monospace" fill="#FFFFFF">Vite</text>
<circle cx="616.0" cy="538" r="3.5" fill="#3178C6"/><text x="625.0" y="542" font-size="11" font-family="ui-monospace,SFMono-Regular,Menlo,Consolas,monospace" fill="#94A3B8">TypeScript</text><text x="1140.0" y="542" font-size="11" font-family="ui-monospace,SFMono-Regular,Menlo,Consolas,monospace" fill="#94A3B8" text-anchor="end">51.6%</text><rect x="611.0" y="548" width="433.0" height="5" rx="2.5" fill="#1E293B"/><rect x="611.0" y="548" width="223.3" height="5" rx="2.5" fill="url(#hd)"/>
<circle cx="616.0" cy="566" r="3.5" fill="#E34C26"/><text x="625.0" y="570" font-size="11" font-family="ui-monospace,SFMono-Regular,Menlo,Consolas,monospace" fill="#94A3B8">HTML</text><text x="1140.0" y="570" font-size="11" font-family="ui-monospace,SFMono-Regular,Menlo,Consolas,monospace" fill="#94A3B8" text-anchor="end">47.0%</text><rect x="611.0" y="576" width="433.0" height="5" rx="2.5" fill="#1E293B"/><rect x="611.0" y="576" width="203.5" height="5" rx="2.5" fill="url(#hd)"/>
<circle cx="616.0" cy="594" r="3.5" fill="#663399"/><text x="625.0" y="598" font-size="11" font-family="ui-monospace,SFMono-Regular,Menlo,Consolas,monospace" fill="#94A3B8">CSS</text><text x="1140.0" y="598" font-size="11" font-family="ui-monospace,SFMono-Regular,Menlo,Consolas,monospace" fill="#94A3B8" text-anchor="end">1.4%</text><rect x="611.0" y="604" width="433.0" height="5" rx="2.5" fill="#1E293B"/><rect x="611.0" y="604" width="6.2" height="5" rx="2.5" fill="url(#hd)"/>
<circle cx="1108.0" cy="490" r="15" fill="none" stroke="#1E293B" stroke-width="5"/><circle cx="1108.0" cy="490" r="15" fill="none" stroke="url(#hd)" stroke-width="5" stroke-linecap="round" stroke-dasharray="48.59 94.25" transform="rotate(-90 1108.0 490)"/><text x="1108.0" y="494" text-anchor="middle" font-size="11" font-family="ui-monospace,SFMono-Regular,Menlo,Consolas,monospace" fill="#E2E8F0">52%</text>
<text x="611.0" y="602" font-size="11" font-family="ui-monospace,SFMono-Regular,Menlo,Consolas,monospace" fill="#64748B">&#9733; 0 &#183; updated today</text>
<a href="https://www.linkedin.com/in/rio-rizqi-saputra-a86441417" style="text-decoration:none"><rect x="324.40000000000003" y="632" width="121.19999999999999" height="26" rx="8" fill="#0077B5"/><text x="385.0" y="649" text-anchor="middle" font-size="12" font-weight="700" font-family="ui-monospace,SFMono-Regular,Menlo,Consolas,monospace" fill="#FFFFFF">in  LinkedIn</text></a>
<a href="https://www.instagram.com/riio_gorioio" style="text-decoration:none"><rect x="463.6" y="632" width="98.39999999999999" height="26" rx="8" fill="#E4405F"/><text x="512.8000000000001" y="649" text-anchor="middle" font-size="12" font-weight="700" font-family="ui-monospace,SFMono-Regular,Menlo,Consolas,monospace" fill="#FFFFFF">Instagram</text></a>
<rect x="580.0" y="632" width="166.79999999999998" height="26" rx="8" fill="#1877F2"/><text x="663.4" y="649" text-anchor="middle" font-size="12" font-weight="700" font-family="ui-monospace,SFMono-Regular,Menlo,Consolas,monospace" fill="#FFFFFF">f  Facebook · soon</text>
<a href="mailto:riorizqi918@gmail.com" style="text-decoration:none"><rect x="764.8" y="632" width="90.8" height="26" rx="8" fill="#10B981"/><text x="810.1999999999999" y="649" text-anchor="middle" font-size="12" font-weight="700" font-family="ui-monospace,SFMono-Regular,Menlo,Consolas,monospace" fill="#FFFFFF">@  Email</text></a>
</svg>