<svg width="1200" height="600" viewBox="0 0 1200 600" fill="none" xmlns="http://www.w3.org/2000/svg">
<defs><linearGradient id="bg" x1="0" y1="0" x2="1200" y2="600" gradientUnits="userSpaceOnUse"><stop stop-color="#070B16"/><stop offset="1" stop-color="#0B1220"/></linearGradient><filter id="cyan"><feGaussianBlur stdDeviation="4" result="b"/><feMerge><feMergeNode in="b"/><feMergeNode in="SourceGraphic"/></feMerge></filter></defs>
<rect x="3" y="3" width="1194" height="594" rx="18" fill="url(#bg)" stroke="#1D4ED8" stroke-width="2"/><path d="M28 75H1172M28 555H1172" stroke="#172554"/><path d="M30 75V30H82M1118 30H1170V75M30 555V570M1118 570H1170V555" stroke="#22D3EE" stroke-width="3"/>
<text x="600" y="55" text-anchor="middle" fill="#67E8F9" font-family="monospace" font-size="26" font-weight="700" letter-spacing="7" filter="url(#cyan)">PROJECTS // LIVE SYSTEMS</text><text x="600" y="103" text-anchor="middle" fill="#64748B" font-family="monospace" font-size="13" letter-spacing="3">SELECTED BUILDS IN THE FLIGHT PATH</text>
<g font-family="monospace"><g fill="#0C1A2C" stroke="#22D3EE" stroke-width="2"><rect x="90" y="140" width="500" height="145" rx="12"/><rect x="610" y="140" width="500" height="145" rx="12"/><rect x="90" y="310" width="500" height="145" rx="12"/><rect x="610" y="310" width="500" height="145" rx="12"/><rect x="90" y="480" width="500" height="80" rx="12"/><rect x="610" y="480" width="500" height="80" rx="12"/></g>
<g fill="#22D3EE" font-size="12"><text x="115" y="170">01 / NEXT.JS + SUPABASE</text><text x="635" y="170">02 / NEXT.JS + GSAP</text><text x="115" y="340">03 / ASP.NET CORE + MYSQL</text><text x="635" y="340">04 / HTML + TAILWIND</text><text x="115" y="510">05 / HTML + CSS + JS</text><text x="635" y="510">06 / REACT + TYPESCRIPT</text></g>
<g fill="#F8FAFC" font-size="23" font-weight="700"><text x="115" y="207">KANTINKU</text><text x="635" y="207">VANTOR</text><text x="115" y="377">CAFE-YO</text><text x="635" y="377">RFM MARKET</text><text x="115" y="538">THE-KILLER</text><text x="635" y="538">PORTFOLIO-RIO</text></g>
<g fill="#94A3B8" font-size="13"><text x="115" y="239">Digital canteen ordering system</text><text x="635" y="239">Luxury watch brand landing page</text><text x="115" y="409">Cafe management system</text><text x="635" y="409">Stocks &amp; crypto dashboard UI</text></g>
<g fill="#0E7490" stroke="#67E8F9"><rect x="505" y="160" width="58" height="30" rx="15"/><rect x="1025" y="160" width="58" height="30" rx="15"/><rect x="505" y="330" width="58" height="30" rx="15"/><rect x="1025" y="330" width="58" height="30" rx="15"/></g><g fill="#ECFEFF" font-size="12" text-anchor="middle"><text x="534" y="180">85%</text><text x="1054" y="180">93%</text><text x="534" y="350">36%</text><text x="1054" y="350">100%</text></g></g>
</svg>
